<?xml version="1.0" encoding="UTF-8"?>
<!DOCTYPE svg PUBLIC "-//W3C//DTD SVG 1.1//EN" "http://www.w3.org/Graphics/SVG/1.1/DTD/svg11.dtd">
<svg xmlns="http://www.w3.org/2000/svg" version="1.1" width="500px" height="500px" style="shape-rendering:geometricPrecision; text-rendering:geometricPrecision; image-rendering:optimizeQuality; fill-rule:evenodd; clip-rule:evenodd" xmlns:xlink="http://www.w3.org/1999/xlink">
<g><path style="opacity:1" fill="#edc9bc" d="M 268.5,86.5 C 247.647,84.8421 226.98,85.5088 206.5,88.5C 227.018,82.8614 247.685,82.1947 268.5,86.5 Z"/></g>
<g><path style="opacity:1" fill="#f8bfab" d="M 238.5,86.5 C 247.528,86.4601 256.528,86.9601 265.5,88C 265.833,88.3333 266.167,88.6667 266.5,89C 263.861,90.9464 260.861,91.9464 257.5,92C 262.281,92.5736 266.948,93.5736 271.5,95C 269.063,96.3747 266.397,96.8747 263.5,96.5C 262.391,100.609 259.725,102.942 255.5,103.5C 255.998,106.681 255.165,109.347 253,111.5C 252,111.167 251,110.833 250,110.5C 243.915,111.312 237.748,111.812 231.5,112C 239.719,112.855 247.886,113.689 256,114.5C 258.626,113.23 260.793,113.896 262.5,116.5C 261.975,117.192 261.308,117.692 260.5,118C 242.707,116.125 225.373,117.958 208.5,123.5C 206.584,122.752 204.584,122.752 202.5,123.5C 203.144,121.522 204.478,120.189 206.5,119.5C 207.429,118.311 207.762,116.978 207.5,115.5C 210.247,115.813 212.914,115.48 215.5,114.5C 211.697,113.158 208.03,113.491 204.5,115.5C 201.991,114.164 199.324,113.33 196.5,113C 197.665,111.916 198.998,111.083 200.5,110.5C 201.328,106.204 201.828,101.871 202,97.5C 202.333,97.8333 202.667,98.1667 203,98.5C 204.712,95.47 207.046,94.8033 210,96.5C 211.971,96.5317 213.471,95.6984 214.5,94C 217.482,93.502 220.482,93.3354 223.5,93.5C 223.5,92.1667 223.5,90.8333 223.5,89.5C 228.875,89.8282 234.208,89.4948 239.5,88.5C 239.137,87.8165 238.804,87.1499 238.5,86.5 Z"/></g>
<g><path style="opacity:1" fill="#f3beb1" d="M 268.5,86.5 C 269.167,86.5 269.833,86.5 270.5,86.5C 272.242,87.9573 274.242,89.124 276.5,90C 281.68,90.8762 286.68,92.2095 291.5,94C 292.71,97.6885 294.377,101.188 296.5,104.5C 297.474,106.743 297.808,109.076 297.5,111.5C 296.167,111.5 294.833,111.5 293.5,111.5C 293.67,114.491 292.337,116.491 289.5,117.5C 286.834,115.754 284.167,115.587 281.5,117C 284.719,117.755 287.053,119.588 288.5,122.5C 288.32,123.554 287.987,124.554 287.5,125.5C 285.257,126.474 282.924,126.808 280.5,126.5C 248.304,116.561 217.304,119.228 187.5,134.5C 187.343,133.127 187.51,131.793 188,130.5C 190.403,131.497 192.736,131.164 195,129.5C 198.257,128.307 200.757,126.307 202.5,123.5C 204.584,122.752 206.584,122.752 208.5,123.5C 225.373,117.958 242.707,116.125 260.5,118C 261.308,117.692 261.975,117.192 262.5,116.5C 260.793,113.896 258.626,113.23 256,114.5C 247.886,113.689 239.719,112.855 231.5,112C 237.748,111.812 243.915,111.312 250,110.5C 251,110.833 252,111.167 253,111.5C 255.165,109.347 255.998,106.681 255.5,103.5C 259.725,102.942 262.391,100.609 263.5,96.5C 266.397,96.8747 269.063,96.3747 271.5,95C 266.948,93.5736 262.281,92.5736 257.5,92C 260.861,91.9464 263.861,90.9464 266.5,89C 266.167,88.6667 265.833,88.3333 265.5,88C 256.528,86.9601 247.528,86.4601 238.5,86.5C 227.248,87.5837 216.081,89.2504 205,91.5C 204.5,91.3333 204,91.1667 203.5,91C 204.942,90.6232 205.942,89.7899 206.5,88.5C 226.98,85.5088 247.647,84.8421 268.5,86.5 Z"/></g>
<g><path style="opacity:1" fill="#eebdb9" d="M 270.5,86.5 C 283.647,88.9254 295.98,93.2587 307.5,99.5C 309.053,101.313 310.72,103.147 312.5,105C 316.298,105.94 319.965,107.107 323.5,108.5C 324.64,111.143 325.974,113.809 327.5,116.5C 326.413,117.105 325.246,116.772 324,115.5C 322.951,117.107 321.451,117.773 319.5,117.5C 319.649,118.552 319.483,119.552 319,120.5C 315.905,121.425 314.072,123.425 313.5,126.5C 310.6,126.28 307.933,126.946 305.5,128.5C 308.146,130.132 309.479,132.465 309.5,135.5C 307.326,135.92 305.326,135.92 303.5,135.5C 302.702,135.957 302.369,136.624 302.5,137.5C 295.096,133.71 287.763,130.043 280.5,126.5C 282.924,126.808 285.257,126.474 287.5,125.5C 287.987,124.554 288.32,123.554 288.5,122.5C 287.053,119.588 284.719,117.755 281.5,117C 284.167,115.587 286.834,115.754 289.5,117.5C 292.337,116.491 293.67,114.491 293.5,111.5C 294.833,111.5 296.167,111.5 297.5,111.5C 297.808,109.076 297.474,106.743 296.5,104.5C 294.377,101.188 292.71,97.6885 291.5,94C 286.68,92.2095 281.68,90.8762 276.5,90C 274.242,89.124 272.242,87.9573 270.5,86.5 Z"/></g>
<g><path style="opacity:1" fill="#f9c1a9" d="M 238.5,86.5 C 238.804,87.1499 239.137,87.8165 239.5,88.5C 234.208,89.4948 228.875,89.8282 223.5,89.5C 223.5,90.8333 223.5,92.1667 223.5,93.5C 220.482,93.3354 217.482,93.502 214.5,94C 213.471,95.6984 211.971,96.5317 210,96.5C 207.046,94.8033 204.712,95.47 203,98.5C 202.667,98.1667 202.333,97.8333 202,97.5C 201.828,101.871 201.328,106.204 200.5,110.5C 198.998,111.083 197.665,111.916 196.5,113C 199.324,113.33 201.991,114.164 204.5,115.5C 208.03,113.491 211.697,113.158 215.5,114.5C 212.914,115.48 210.247,115.813 207.5,115.5C 207.762,116.978 207.429,118.311 206.5,119.5C 204.478,120.189 203.144,121.522 202.5,123.5C 200.757,126.307 198.257,128.307 195,129.5C 192.736,131.164 190.403,131.497 188,130.5C 187.51,131.793 187.343,133.127 187.5,134.5C 187.5,135.167 187.167,135.5 186.5,135.5C 183.833,135.833 181.167,136.167 178.5,136.5C 178.719,137.675 178.386,138.675 177.5,139.5C 175.009,141.047 172.675,142.714 170.5,144.5C 169.791,143.596 168.791,143.263 167.5,143.5C 167.5,138.167 167.5,132.833 167.5,127.5C 170.579,127.74 173.579,127.407 176.5,126.5C 178.626,130.208 180.959,130.374 183.5,127C 182.234,124.617 181.568,121.95 181.5,119C 181.609,115.965 182.276,113.131 183.5,110.5C 180.628,109.217 177.795,109.217 175,110.5C 172.08,104.489 168.247,103.989 163.5,109C 162.207,109.49 160.873,109.657 159.5,109.5C 173.514,99.2543 189.181,92.2543 206.5,88.5C 205.942,89.7899 204.942,90.6232 203.5,91C 204,91.1667 204.5,91.3333 205,91.5C 216.081,89.2504 227.248,87.5837 238.5,86.5 Z"/></g>
<g><path style="opacity:1" fill="#fbc2a7" d="M 170.5,144.5 C 166.303,147.249 163.303,150.916 161.5,155.5C 159.418,155.472 157.584,156.139 156,157.5C 155.667,157.167 155.333,156.833 155,156.5C 154.667,158.167 154.333,159.833 154,161.5C 151.724,163.535 149.891,165.868 148.5,168.5C 146.469,167.461 145.136,165.795 144.5,163.5C 143.217,166.372 143.217,169.205 144.5,172C 143.386,173.57 142.053,174.903 140.5,176C 140.957,176.414 141.291,176.914 141.5,177.5C 138.563,184.846 135.73,192.179 133,199.5C 132.827,203.541 132.327,207.541 131.5,211.5C 130.054,212.171 129.388,213.338 129.5,215C 131.027,225.57 130.694,236.07 128.5,246.5C 125.579,247.407 122.579,247.74 119.5,247.5C 119.5,250.167 119.5,252.833 119.5,255.5C 118.5,255.5 117.5,255.5 116.5,255.5C 116.5,258.167 116.5,260.833 116.5,263.5C 114.856,263.286 113.356,263.62 112,264.5C 111.503,266.81 111.337,269.143 111.5,271.5C 112.978,271.238 114.311,271.571 115.5,272.5C 113.5,276.317 111.334,279.984 109,283.5C 108.626,282.584 108.126,281.75 107.5,281C 108.167,278.333 108.833,275.667 109.5,273C 107.594,271.007 106.427,271.507 106,274.5C 105.329,275.252 104.496,275.586 103.5,275.5C 101.218,268.029 99.7178,260.362 99,252.5C 98.3333,251.167 97.6667,249.833 97,248.5C 96.3333,238.167 96.3333,227.833 97,217.5C 100.147,213.654 100.647,209.654 98.5,205.5C 99.9897,199.583 100.99,193.583 101.5,187.5C 103.828,182.949 106.161,178.282 108.5,173.5C 109.156,171.547 109.489,169.547 109.5,167.5C 111.532,166.952 112.532,165.619 112.5,163.5C 113.5,163.5 114.5,163.5 115.5,163.5C 115.337,161.143 115.503,158.81 116,156.5C 116.667,155.167 117.333,155.167 118,156.5C 118.165,152.825 119.832,150.158 123,148.5C 126.538,142.286 130.872,136.619 136,131.5C 136.791,130.255 137.291,128.922 137.5,127.5C 143.956,120.372 151.29,114.372 159.5,109.5C 160.873,109.657 162.207,109.49 163.5,109C 168.247,103.989 172.08,104.489 175,110.5C 177.795,109.217 180.628,109.217 183.5,110.5C 182.276,113.131 181.609,115.965 181.5,119C 181.568,121.95 182.234,124.617 183.5,127C 180.959,130.374 178.626,130.208 176.5,126.5C 173.579,127.407 170.579,127.74 167.5,127.5C 167.5,132.833 167.5,138.167 167.5,143.5C 168.791,143.263 169.791,143.596 170.5,144.5 Z"/></g>
<g><path style="opacity:1" fill="#eabcbe" d="M 307.5,99.5 C 317.773,103.636 327.106,109.302 335.5,116.5C 335.665,119.85 335.498,123.183 335,126.5C 333.416,127.861 331.582,128.528 329.5,128.5C 329.579,129.93 329.246,131.264 328.5,132.5C 326.599,133.545 324.933,134.878 323.5,136.5C 321.604,137.466 319.604,137.799 317.5,137.5C 314.891,143.839 311.891,144.005 308.5,138C 306.39,138.347 304.39,138.18 302.5,137.5C 302.369,136.624 302.702,135.957 303.5,135.5C 305.326,135.92 307.326,135.92 309.5,135.5C 309.479,132.465 308.146,130.132 305.5,128.5C 307.933,126.946 310.6,126.28 313.5,126.5C 314.072,123.425 315.905,121.425 319,120.5C 319.483,119.552 319.649,118.552 319.5,117.5C 321.451,117.773 322.951,117.107 324,115.5C 325.246,116.772 326.413,117.105 327.5,116.5C 325.974,113.809 324.64,111.143 323.5,108.5C 319.965,107.107 316.298,105.94 312.5,105C 310.72,103.147 309.053,101.313 307.5,99.5 Z"/></g>
<g><path style="opacity:1" fill="#e6bcc4" d="M 335.5,116.5 C 342.825,122.158 349.491,128.492 355.5,135.5C 354.972,136.847 354.805,138.181 355,139.5C 355.333,139.167 355.667,138.833 356,138.5C 357.046,140.09 358.213,141.59 359.5,143C 356.89,143.147 354.556,143.981 352.5,145.5C 350.401,143.466 348.068,143.132 345.5,144.5C 344.167,146.5 342.833,148.5 341.5,150.5C 337.446,152.886 333.446,154.553 329.5,155.5C 329.968,157.134 330.968,158.3 332.5,159C 330.455,159.49 328.455,159.323 326.5,158.5C 319.29,150.567 311.29,143.567 302.5,137.5C 304.39,138.18 306.39,138.347 308.5,138C 311.891,144.005 314.891,143.839 317.5,137.5C 319.604,137.799 321.604,137.466 323.5,136.5C 324.933,134.878 326.599,133.545 328.5,132.5C 329.246,131.264 329.579,129.93 329.5,128.5C 331.582,128.528 333.416,127.861 335,126.5C 335.498,123.183 335.665,119.85 335.5,116.5 Z"/></g>
<g><path style="opacity:0.514" fill="#efc9b9" d="M 186.5,135.5 C 177.326,140.996 168.992,147.663 161.5,155.5C 163.303,150.916 166.303,147.249 170.5,144.5C 172.675,142.714 175.009,141.047 177.5,139.5C 178.386,138.675 178.719,137.675 178.5,136.5C 181.167,136.167 183.833,135.833 186.5,135.5 Z"/></g>
<g><path style="opacity:0.806" fill="#ebc8bc" d="M 255.5,141.5 C 247.316,141.174 239.316,141.508 231.5,142.5C 228.833,143.167 226.167,143.833 223.5,144.5C 218.475,146.72 213.142,147.72 207.5,147.5C 222.856,140.801 238.856,138.801 255.5,141.5 Z"/></g>
<g><path style="opacity:1" fill="#f5beb0" d="M 231.5,142.5 C 238.175,142.334 244.842,142.5 251.5,143C 253.861,143.197 255.528,144.364 256.5,146.5C 253.572,147.484 250.572,147.817 247.5,147.5C 247.657,148.873 247.49,150.207 247,151.5C 244.331,155.506 241.331,158.506 238,160.5C 236.554,164.722 235.72,169.055 235.5,173.5C 231.677,173.167 230.177,174.834 231,178.5C 231.777,176.299 232.944,176.299 234.5,178.5C 234.113,179.72 233.28,180.387 232,180.5C 228.319,178.495 224.819,178.495 221.5,180.5C 217.198,178.041 212.531,177.041 207.5,177.5C 207.5,177.167 207.5,176.833 207.5,176.5C 209.857,176.663 212.19,176.497 214.5,176C 213.272,175.221 212.272,174.221 211.5,173C 214.551,168.428 218.551,165.262 223.5,163.5C 223.719,162.325 223.386,161.325 222.5,160.5C 220.775,159.985 219.108,159.318 217.5,158.5C 219.5,157.667 221.5,156.833 223.5,156C 224.38,154.644 224.714,153.144 224.5,151.5C 228.167,150.5 230.5,148.167 231.5,144.5C 228.833,144.5 226.167,144.5 223.5,144.5C 226.167,143.833 228.833,143.167 231.5,142.5 Z"/></g>
<g><path style="opacity:1" fill="#f0bdb4" d="M 231.5,142.5 C 239.316,141.508 247.316,141.174 255.5,141.5C 257.635,143.369 260.302,144.036 263.5,143.5C 263.474,152.79 264.474,161.957 266.5,171C 266.333,172.5 266.167,174 266,175.5C 265.333,174.167 264.667,174.167 264,175.5C 263.821,178.553 263.321,181.553 262.5,184.5C 260.941,183.926 259.441,183.26 258,182.5C 257.667,184.833 257.333,187.167 257,189.5C 255.247,188.373 253.413,187.373 251.5,186.5C 247.906,187.426 244.24,187.759 240.5,187.5C 229.338,184.409 218.338,181.076 207.5,177.5C 212.531,177.041 217.198,178.041 221.5,180.5C 224.819,178.495 228.319,178.495 232,180.5C 233.28,180.387 234.113,179.72 234.5,178.5C 232.944,176.299 231.777,176.299 231,178.5C 230.177,174.834 231.677,173.167 235.5,173.5C 235.72,169.055 236.554,164.722 238,160.5C 241.331,158.506 244.331,155.506 247,151.5C 247.49,150.207 247.657,148.873 247.5,147.5C 250.572,147.817 253.572,147.484 256.5,146.5C 255.528,144.364 253.861,143.197 251.5,143C 244.842,142.5 238.175,142.334 231.5,142.5 Z"/></g>
<g><path style="opacity:1" fill="#e1bccb" d="M 355.5,135.5 C 364.533,145.563 371.533,156.896 376.5,169.5C 375.778,169.918 375.278,170.584 375,171.5C 372.876,167.703 371.209,163.703 370,159.5C 369.128,157.387 367.628,156.054 365.5,155.5C 359.269,159.38 353.269,163.713 347.5,168.5C 345.859,171.557 344.526,174.723 343.5,178C 346.997,183.971 348.664,190.471 348.5,197.5C 343.508,183.183 336.175,170.183 326.5,158.5C 328.455,159.323 330.455,159.49 332.5,159C 330.968,158.3 329.968,157.134 329.5,155.5C 333.446,154.553 337.446,152.886 341.5,150.5C 342.833,148.5 344.167,146.5 345.5,144.5C 348.068,143.132 350.401,143.466 352.5,145.5C 354.556,143.981 356.89,143.147 359.5,143C 358.213,141.59 357.046,140.09 356,138.5C 355.667,138.833 355.333,139.167 355,139.5C 354.805,138.181 354.972,136.847 355.5,135.5 Z"/></g>
<g><path style="opacity:1" fill="#f7bfad" d="M 223.5,144.5 C 226.167,144.5 228.833,144.5 231.5,144.5C 230.5,148.167 228.167,150.5 224.5,151.5C 224.714,153.144 224.38,154.644 223.5,156C 221.5,156.833 219.5,157.667 217.5,158.5C 219.108,159.318 220.775,159.985 222.5,160.5C 223.386,161.325 223.719,162.325 223.5,163.5C 218.551,165.262 214.551,168.428 211.5,173C 212.272,174.221 213.272,175.221 214.5,176C 212.19,176.497 209.857,176.663 207.5,176.5C 201.407,174.952 195.407,173.119 189.5,171C 187.49,168.225 184.99,167.392 182,168.5C 181.308,167.975 180.808,167.308 180.5,166.5C 181.952,165.06 182.952,163.394 183.5,161.5C 190.283,154.79 198.283,150.123 207.5,147.5C 213.142,147.72 218.475,146.72 223.5,144.5 Z"/></g>
<g><path style="opacity:1" fill="#ddbad1" d="M 376.5,169.5 C 380.832,176.52 383.832,184.187 385.5,192.5C 383.125,190.934 381.958,188.601 382,185.5C 381.333,186.833 380.667,186.833 380,185.5C 378.801,182.274 378.301,178.941 378.5,175.5C 375.833,175.5 373.167,175.5 370.5,175.5C 370.75,178.214 370.917,180.881 371,183.5C 370.311,182.643 369.478,181.977 368.5,181.5C 367.232,183.304 366.565,185.304 366.5,187.5C 365.5,187.5 364.5,187.5 363.5,187.5C 363.5,188.833 363.5,190.167 363.5,191.5C 359.5,191.5 357.5,193.5 357.5,197.5C 355.446,197.365 353.779,198.032 352.5,199.5C 351.391,199.557 350.391,199.89 349.5,200.5C 348.89,199.609 348.557,198.609 348.5,197.5C 348.664,190.471 346.997,183.971 343.5,178C 344.526,174.723 345.859,171.557 347.5,168.5C 353.269,163.713 359.269,159.38 365.5,155.5C 367.628,156.054 369.128,157.387 370,159.5C 371.209,163.703 372.876,167.703 375,171.5C 375.278,170.584 375.778,169.918 376.5,169.5 Z"/></g>
<g><path style="opacity:1" fill="#f2c7b2" d="M 137.5,127.5 C 137.291,128.922 136.791,130.255 136,131.5C 130.872,136.619 126.538,142.286 123,148.5C 119.832,150.158 118.165,152.825 118,156.5C 117.333,155.167 116.667,155.167 116,156.5C 115.503,158.81 115.337,161.143 115.5,163.5C 114.5,163.5 113.5,163.5 112.5,163.5C 112.532,165.619 111.532,166.952 109.5,167.5C 116.048,152.274 125.381,138.941 137.5,127.5 Z"/></g>
<g><path style="opacity:1" fill="#eabdbf" d="M 315.5,176.5 C 314.25,176.423 313.417,175.756 313,174.5C 312.43,178.512 311.263,179.012 309.5,176C 311.712,173.826 311.212,171.992 308,170.5C 306.705,171.841 306.205,173.174 306.5,174.5C 305.167,173.5 303.833,172.5 302.5,171.5C 301.571,172.689 301.238,174.022 301.5,175.5C 300.167,175.5 298.833,175.5 297.5,175.5C 297.762,176.978 297.429,178.311 296.5,179.5C 293.748,182.76 290.581,185.427 287,187.5C 286.027,185.608 285.36,183.608 285,181.5C 283.784,183.962 283.118,186.629 283,189.5C 282.172,180.19 281.672,180.19 281.5,189.5C 279.629,176.027 278.296,162.36 277.5,148.5C 283.939,149.728 289.939,152.228 295.5,156C 303.397,161.729 310.064,168.562 315.5,176.5 Z"/></g>
<g><path style="opacity:1" fill="#edc7b8" d="M 183.5,161.5 C 182.952,163.394 181.952,165.06 180.5,166.5C 180.808,167.308 181.308,167.975 182,168.5C 184.99,167.392 187.49,168.225 189.5,171C 195.407,173.119 201.407,174.952 207.5,176.5C 207.5,176.833 207.5,177.167 207.5,177.5C 197.707,175.135 188.04,172.301 178.5,169C 177.465,167.493 177.632,165.993 179,164.5C 180.4,163.252 181.9,162.252 183.5,161.5 Z"/></g>
<g><path style="opacity:1" fill="#e5bbc5" d="M 315.5,176.5 C 315.586,177.496 315.252,178.329 314.5,179C 315.701,179.903 316.535,181.069 317,182.5C 317.333,182.167 317.667,181.833 318,181.5C 318.49,182.793 318.657,184.127 318.5,185.5C 316.856,185.714 315.356,185.38 314,184.5C 310.395,186.262 306.895,188.262 303.5,190.5C 304.167,191.167 304.833,191.833 305.5,192.5C 300.58,195.416 296.247,199.082 292.5,203.5C 291.571,204.689 291.238,206.022 291.5,207.5C 287.179,206.824 285.179,208.658 285.5,213C 286.311,219.81 286.644,226.644 286.5,233.5C 283.993,219.077 282.326,204.41 281.5,189.5C 281.672,180.19 282.172,180.19 283,189.5C 283.118,186.629 283.784,183.962 285,181.5C 285.36,183.608 286.027,185.608 287,187.5C 290.581,185.427 293.748,182.76 296.5,179.5C 297.429,178.311 297.762,176.978 297.5,175.5C 298.833,175.5 300.167,175.5 301.5,175.5C 301.238,174.022 301.571,172.689 302.5,171.5C 303.833,172.5 305.167,173.5 306.5,174.5C 306.205,173.174 306.705,171.841 308,170.5C 311.212,171.992 311.712,173.826 309.5,176C 311.263,179.012 312.43,178.512 313,174.5C 313.417,175.756 314.25,176.423 315.5,176.5 Z"/></g>
<g><path style="opacity:0.922" fill="#f1cdb9" d="M 109.5,167.5 C 109.489,169.547 109.156,171.547 108.5,173.5C 106.161,178.282 103.828,182.949 101.5,187.5C 103.103,180.311 105.77,173.644 109.5,167.5 Z"/></g>
<g><path style="opacity:1" fill="#eec8b9" d="M 184.5,182.5 C 183.07,182.421 181.736,182.754 180.5,183.5C 176.454,181.489 172.12,180.489 167.5,180.5C 166.057,185.052 163.39,188.719 159.5,191.5C 161.58,185.9 164.913,181.234 169.5,177.5C 174.662,179.032 179.662,180.698 184.5,182.5 Z"/></g>
<g><path style="opacity:1" fill="#f7bfad" d="M 184.5,182.5 C 195.148,185.663 205.815,188.83 216.5,192C 219.046,193.521 219.046,195.021 216.5,196.5C 214.833,196.5 213.167,196.5 211.5,196.5C 211.719,197.675 211.386,198.675 210.5,199.5C 207.217,200.188 204.051,201.188 201,202.5C 200.04,204.98 199.207,207.48 198.5,210C 196.655,211.128 194.655,211.628 192.5,211.5C 191.956,213.58 191.122,215.58 190,217.5C 188.89,219.037 187.39,219.703 185.5,219.5C 183.95,223.867 180.784,226.2 176,226.5C 175.308,225.975 174.808,225.308 174.5,224.5C 175.681,222.802 175.681,221.135 174.5,219.5C 172.918,221.585 170.918,223.085 168.5,224C 171,225.134 172.167,226.968 172,229.5C 171.333,230.833 170.667,230.833 170,229.5C 168.956,230.623 168.29,231.956 168,233.5C 167.667,233.167 167.333,232.833 167,232.5C 165.736,234.607 163.903,235.607 161.5,235.5C 162.428,239.458 161.094,242.125 157.5,243.5C 156.754,244.736 156.421,246.07 156.5,247.5C 155.167,247.5 153.833,247.5 152.5,247.5C 151.98,235.242 152.647,223.075 154.5,211C 154.472,209.93 154.139,209.097 153.5,208.5C 154.425,202.475 156.425,196.808 159.5,191.5C 163.39,188.719 166.057,185.052 167.5,180.5C 172.12,180.489 176.454,181.489 180.5,183.5C 181.736,182.754 183.07,182.421 184.5,182.5 Z"/></g>
<g><path style="opacity:1" fill="#e9bebc" d="M 255.5,141.5 C 259.091,141.442 262.258,142.442 265,144.5C 267.714,161.74 269.548,179.074 270.5,196.5C 260.234,193.991 250.234,190.991 240.5,187.5C 244.24,187.759 247.906,187.426 251.5,186.5C 253.413,187.373 255.247,188.373 257,189.5C 257.333,187.167 257.667,184.833 258,182.5C 259.441,183.26 260.941,183.926 262.5,184.5C 263.321,181.553 263.821,178.553 264,175.5C 264.667,174.167 265.333,174.167 266,175.5C 266.167,174 266.333,172.5 266.5,171C 264.474,161.957 263.474,152.79 263.5,143.5C 260.302,144.036 257.635,143.369 255.5,141.5 Z"/></g>
<g><path style="opacity:1" fill="#d7bad7" d="M 385.5,192.5 C 388.378,202.646 390.045,212.98 390.5,223.5C 387.538,223.883 386.538,222.883 387.5,220.5C 386.91,216.769 386.076,213.102 385,209.5C 384.667,210.833 384.333,212.167 384,213.5C 383.481,212.484 382.647,211.818 381.5,211.5C 379.666,212.754 377.666,213.421 375.5,213.5C 374.243,218.68 371.91,223.347 368.5,227.5C 367.509,231.445 367.176,235.445 367.5,239.5C 366.167,239.5 364.833,239.5 363.5,239.5C 363.781,234.435 363.448,229.435 362.5,224.5C 362.167,224.167 361.833,223.833 361.5,223.5C 360.07,228.572 359.57,233.572 360,238.5C 359.586,238.957 359.086,239.291 358.5,239.5C 357.833,234.167 357.167,228.833 356.5,223.5C 355.824,224.602 355.158,225.602 354.5,226.5C 356.208,220.955 355.708,215.622 353,210.5C 352.501,206.848 352.335,203.182 352.5,199.5C 353.779,198.032 355.446,197.365 357.5,197.5C 357.5,193.5 359.5,191.5 363.5,191.5C 363.5,190.167 363.5,188.833 363.5,187.5C 364.5,187.5 365.5,187.5 366.5,187.5C 366.565,185.304 367.232,183.304 368.5,181.5C 369.478,181.977 370.311,182.643 371,183.5C 370.917,180.881 370.75,178.214 370.5,175.5C 373.167,175.5 375.833,175.5 378.5,175.5C 378.301,178.941 378.801,182.274 380,185.5C 380.667,186.833 381.333,186.833 382,185.5C 381.958,188.601 383.125,190.934 385.5,192.5 Z"/></g>
<g><path style="opacity:1" fill="#e0bbcb" d="M 315.5,176.5 C 321.229,182.933 325.729,190.267 329,198.5C 329.667,200.167 329.667,201.833 329,203.5C 315.481,215.355 302.314,227.522 289.5,240C 288.552,240.483 287.552,240.649 286.5,240.5C 286.5,238.167 286.5,235.833 286.5,233.5C 286.644,226.644 286.311,219.81 285.5,213C 285.179,208.658 287.179,206.824 291.5,207.5C 291.238,206.022 291.571,204.689 292.5,203.5C 296.247,199.082 300.58,195.416 305.5,192.5C 304.833,191.833 304.167,191.167 303.5,190.5C 306.895,188.262 310.395,186.262 314,184.5C 315.356,185.38 316.856,185.714 318.5,185.5C 318.657,184.127 318.49,182.793 318,181.5C 317.667,181.833 317.333,182.167 317,182.5C 316.535,181.069 315.701,179.903 314.5,179C 315.252,178.329 315.586,177.496 315.5,176.5 Z"/></g>
<g><path style="opacity:1" fill="#d2bbdd" d="M 390.5,223.5 C 392.028,252.227 385.695,278.894 371.5,303.5C 370.751,302.469 370.085,301.302 369.5,300C 372.032,296.477 374.532,292.977 377,289.5C 378.092,282.394 380.258,275.727 383.5,269.5C 383.167,268.833 382.833,268.167 382.5,267.5C 381.5,268.5 380.5,269.5 379.5,270.5C 380.46,271.812 380.294,273.146 379,274.5C 378.501,270.848 378.335,267.182 378.5,263.5C 380.792,263.756 382.959,263.423 385,262.5C 386.368,259.262 386.701,255.928 386,252.5C 385.667,253.5 385.333,254.5 385,255.5C 381.902,253.953 378.569,253.286 375,253.5C 372.5,253.833 370,254.167 367.5,254.5C 370.167,255.167 372.833,255.833 375.5,256.5C 374.833,257.167 374.167,257.833 373.5,258.5C 362.552,259.118 356.552,264.785 355.5,275.5C 353.533,275.739 351.699,275.406 350,274.5C 349.29,275.973 348.124,276.64 346.5,276.5C 348.054,272.698 349.054,268.698 349.5,264.5C 350.5,264.5 351.5,264.5 352.5,264.5C 351.7,257.052 353.033,250.052 356.5,243.5C 354.717,238.001 354.05,232.334 354.5,226.5C 355.158,225.602 355.824,224.602 356.5,223.5C 357.167,228.833 357.833,234.167 358.5,239.5C 359.086,239.291 359.586,238.957 360,238.5C 359.57,233.572 360.07,228.572 361.5,223.5C 361.833,223.833 362.167,224.167 362.5,224.5C 363.448,229.435 363.781,234.435 363.5,239.5C 364.833,239.5 366.167,239.5 367.5,239.5C 367.176,235.445 367.509,231.445 368.5,227.5C 371.91,223.347 374.243,218.68 375.5,213.5C 377.666,213.421 379.666,212.754 381.5,211.5C 382.647,211.818 383.481,212.484 384,213.5C 384.333,212.167 384.667,210.833 385,209.5C 386.076,213.102 386.91,216.769 387.5,220.5C 386.538,222.883 387.538,223.883 390.5,223.5 Z"/></g>
<g><path style="opacity:1" fill="#f1c1b6" d="M 216.5,196.5 C 195.568,214.59 174.735,232.924 154,251.5C 152.115,250.008 151.115,248.008 151,245.5C 150.333,236.167 150.333,226.833 151,217.5C 151.66,214.322 152.493,211.322 153.5,208.5C 154.139,209.097 154.472,209.93 154.5,211C 152.647,223.075 151.98,235.242 152.5,247.5C 153.833,247.5 155.167,247.5 156.5,247.5C 156.421,246.07 156.754,244.736 157.5,243.5C 161.094,242.125 162.428,239.458 161.5,235.5C 163.903,235.607 165.736,234.607 167,232.5C 167.333,232.833 167.667,233.167 168,233.5C 168.29,231.956 168.956,230.623 170,229.5C 170.667,230.833 171.333,230.833 172,229.5C 172.167,226.968 171,225.134 168.5,224C 170.918,223.085 172.918,221.585 174.5,219.5C 175.681,221.135 175.681,222.802 174.5,224.5C 174.808,225.308 175.308,225.975 176,226.5C 180.784,226.2 183.95,223.867 185.5,219.5C 187.39,219.703 188.89,219.037 190,217.5C 191.122,215.58 191.956,213.58 192.5,211.5C 194.655,211.628 196.655,211.128 198.5,210C 199.207,207.48 200.04,204.98 201,202.5C 204.051,201.188 207.217,200.188 210.5,199.5C 211.386,198.675 211.719,197.675 211.5,196.5C 213.167,196.5 214.833,196.5 216.5,196.5 Z"/></g>
<g><path style="opacity:0.996" fill="#d6bfd1" d="M 329.5,261.5 C 330.862,247.532 331.862,233.532 332.5,219.5C 329.035,219.351 327.035,221.018 326.5,224.5C 323.691,225.764 321.524,227.764 320,230.5C 319.086,229.346 318.253,229.513 317.5,231C 317.833,231.333 318.167,231.667 318.5,232C 314.023,234.323 309.69,236.823 305.5,239.5C 314.113,231.292 322.947,223.292 332,215.5C 333.801,220.601 334.635,225.934 334.5,231.5C 334.198,237.516 333.698,243.516 333,249.5C 332.431,253.795 331.264,257.795 329.5,261.5 Z"/></g>
<g><path style="opacity:1" fill="#d7bad7" d="M 329.5,261.5 C 326.966,269.461 323.299,276.794 318.5,283.5C 317.788,282.261 316.788,281.761 315.5,282C 314.436,284.794 313.103,287.461 311.5,290C 307.104,291.214 303.437,290.214 300.5,287C 298.866,286.506 297.199,286.34 295.5,286.5C 295.881,284.058 295.214,283.391 293.5,284.5C 292.5,283.833 291.5,283.167 290.5,282.5C 290.167,283.167 289.833,283.833 289.5,284.5C 286.579,283.593 283.579,283.26 280.5,283.5C 280.167,283.5 279.833,283.5 279.5,283.5C 279.586,282.504 279.252,281.671 278.5,281C 275.595,279.714 272.595,278.714 269.5,278C 268.549,277.282 268.383,276.449 269,275.5C 271.8,274.875 274.634,274.208 277.5,273.5C 275.599,272.065 275.266,270.398 276.5,268.5C 280.551,265.451 283.884,261.784 286.5,257.5C 288.22,256.066 290.22,255.233 292.5,255C 296.433,250.582 300.099,246.082 303.5,241.5C 303.5,240.167 304.167,239.5 305.5,239.5C 309.69,236.823 314.023,234.323 318.5,232C 318.167,231.667 317.833,231.333 317.5,231C 318.253,229.513 319.086,229.346 320,230.5C 321.524,227.764 323.691,225.764 326.5,224.5C 327.035,221.018 329.035,219.351 332.5,219.5C 331.862,233.532 330.862,247.532 329.5,261.5 Z"/></g>
<g><path style="opacity:1" fill="#f1beb4" d="M 159.5,271.5 C 157.914,269.919 156.914,267.919 156.5,265.5C 157,264.5 157.5,263.5 158,262.5C 167.059,254.599 176.226,246.932 185.5,239.5C 187.951,238.589 190.285,237.756 192.5,237C 195.353,239.854 195.853,243.354 194,247.5C 193.692,246.692 193.192,246.025 192.5,245.5C 191.786,248.027 191.12,250.527 190.5,253C 187.447,253.179 184.447,253.679 181.5,254.5C 182.544,255.623 183.21,256.956 183.5,258.5C 181.257,263.985 178.757,269.318 176,274.5C 173.342,275.694 172.176,274.694 172.5,271.5C 171.167,271.5 169.833,271.5 168.5,271.5C 168.167,274.5 169.5,275.833 172.5,275.5C 171.741,280.699 169.241,281.699 165,278.5C 164.088,276.341 163.255,274.175 162.5,272C 161.552,271.517 160.552,271.351 159.5,271.5 Z"/></g>
<g><path style="opacity:1" fill="#f7c1ad" d="M 161.5,155.5 C 136.258,184.938 127.258,218.938 134.5,257.5C 134.065,265.873 135.231,273.873 138,281.5C 134.343,279.699 132.51,276.699 132.5,272.5C 131.833,272.833 131.167,273.167 130.5,273.5C 129.258,277.669 129.258,281.836 130.5,286C 128.791,288.043 126.791,289.877 124.5,291.5C 124.223,296.704 122.723,301.371 120,305.5C 119.075,304.953 118.242,304.287 117.5,303.5C 119.276,302.685 119.943,301.518 119.5,300C 117.269,298.853 114.935,297.853 112.5,297C 111.204,294.239 110.037,291.405 109,288.5C 108.329,287.748 107.496,287.414 106.5,287.5C 105.512,283.516 104.512,279.516 103.5,275.5C 104.496,275.586 105.329,275.252 106,274.5C 106.427,271.507 107.594,271.007 109.5,273C 108.833,275.667 108.167,278.333 107.5,281C 108.126,281.75 108.626,282.584 109,283.5C 111.334,279.984 113.5,276.317 115.5,272.5C 114.311,271.571 112.978,271.238 111.5,271.5C 111.337,269.143 111.503,266.81 112,264.5C 113.356,263.62 114.856,263.286 116.5,263.5C 116.5,260.833 116.5,258.167 116.5,255.5C 117.5,255.5 118.5,255.5 119.5,255.5C 119.5,252.833 119.5,250.167 119.5,247.5C 122.579,247.74 125.579,247.407 128.5,246.5C 130.694,236.07 131.027,225.57 129.5,215C 129.388,213.338 130.054,212.171 131.5,211.5C 132.327,207.541 132.827,203.541 133,199.5C 135.73,192.179 138.563,184.846 141.5,177.5C 141.291,176.914 140.957,176.414 140.5,176C 142.053,174.903 143.386,173.57 144.5,172C 143.217,169.205 143.217,166.372 144.5,163.5C 145.136,165.795 146.469,167.461 148.5,168.5C 149.891,165.868 151.724,163.535 154,161.5C 154.333,159.833 154.667,158.167 155,156.5C 155.333,156.833 155.667,157.167 156,157.5C 157.584,156.139 159.418,155.472 161.5,155.5 Z"/></g>
<g><path style="opacity:1" fill="#edbdb9" d="M 200.5,253.5 C 199.778,253.918 199.278,254.584 199,255.5C 198.752,260.563 198.085,265.563 197,270.5C 194.481,272.212 193.981,274.379 195.5,277C 192.89,277.147 190.556,277.981 188.5,279.5C 186.724,283.923 185.057,288.257 183.5,292.5C 183.977,293.478 184.643,294.311 185.5,295C 183.893,294.981 182.226,294.815 180.5,294.5C 180.351,295.552 180.517,296.552 181,297.5C 182.627,298.532 183.793,299.866 184.5,301.5C 183.833,301.5 183.167,301.5 182.5,301.5C 172.402,293.274 164.735,283.274 159.5,271.5C 160.552,271.351 161.552,271.517 162.5,272C 163.255,274.175 164.088,276.341 165,278.5C 169.241,281.699 171.741,280.699 172.5,275.5C 169.5,275.833 168.167,274.5 168.5,271.5C 169.833,271.5 171.167,271.5 172.5,271.5C 172.176,274.694 173.342,275.694 176,274.5C 178.757,269.318 181.257,263.985 183.5,258.5C 183.21,256.956 182.544,255.623 181.5,254.5C 184.447,253.679 187.447,253.179 190.5,253C 191.12,250.527 191.786,248.027 192.5,245.5C 193.192,246.025 193.692,246.692 194,247.5C 195.853,243.354 195.353,239.854 192.5,237C 190.285,237.756 187.951,238.589 185.5,239.5C 187.764,236.569 190.431,233.903 193.5,231.5C 194.689,230.571 196.022,230.238 197.5,230.5C 198.226,238.244 199.226,245.911 200.5,253.5 Z"/></g>
<g><path style="opacity:1" fill="#f2cab7" d="M 101.5,187.5 C 100.99,193.583 99.9897,199.583 98.5,205.5C 100.647,209.654 100.147,213.654 97,217.5C 96.3333,227.833 96.3333,238.167 97,248.5C 97.6667,249.833 98.3333,251.167 99,252.5C 99.7178,260.362 101.218,268.029 103.5,275.5C 104.512,279.516 105.512,283.516 106.5,287.5C 94.416,258.553 91.5827,228.553 98,197.5C 98.9864,193.996 100.153,190.663 101.5,187.5 Z"/></g>
<g><path style="opacity:1" fill="#cdbde3" d="M 371.5,303.5 C 369.057,307.783 366.39,311.95 363.5,316C 369.895,333.523 376.062,351.023 382,368.5C 383.349,384.816 375.849,391.983 359.5,390C 343.248,383.975 327.248,377.475 311.5,370.5C 311.461,369.417 311.127,368.417 310.5,367.5C 308.257,366.526 305.924,366.192 303.5,366.5C 303.034,364.799 303.034,363.299 303.5,362C 300.676,361.657 298.009,362.157 295.5,363.5C 292.876,363.711 291.21,362.544 290.5,360C 292.298,360.006 293.965,360.339 295.5,361C 295.263,358.712 295.263,356.212 295.5,353.5C 297.924,353.808 300.257,353.474 302.5,352.5C 300.833,351.833 299.167,351.167 297.5,350.5C 300.243,348.262 302.409,345.595 304,342.5C 306.875,343.491 309.375,342.824 311.5,340.5C 319.579,343.282 327.746,345.948 336,348.5C 338.768,347.725 339.934,345.892 339.5,343C 339.253,339.581 337.587,337.081 334.5,335.5C 332.078,330.835 330.411,325.835 329.5,320.5C 327.93,315.61 327.43,310.61 328,305.5C 331.069,301.42 334.735,297.753 339,294.5C 340.724,288.068 343.224,282.068 346.5,276.5C 348.124,276.64 349.29,275.973 350,274.5C 351.699,275.406 353.533,275.739 355.5,275.5C 356.552,264.785 362.552,259.118 373.5,258.5C 374.167,257.833 374.833,257.167 375.5,256.5C 372.833,255.833 370.167,255.167 367.5,254.5C 370,254.167 372.5,253.833 375,253.5C 378.569,253.286 381.902,253.953 385,255.5C 385.333,254.5 385.667,253.5 386,252.5C 386.701,255.928 386.368,259.262 385,262.5C 382.959,263.423 380.792,263.756 378.5,263.5C 378.335,267.182 378.501,270.848 379,274.5C 380.294,273.146 380.46,271.812 379.5,270.5C 380.5,269.5 381.5,268.5 382.5,267.5C 382.833,268.167 383.167,268.833 383.5,269.5C 380.258,275.727 378.092,282.394 377,289.5C 374.532,292.977 372.032,296.477 369.5,300C 370.085,301.302 370.751,302.469 371.5,303.5 Z"/></g>
<g><path style="opacity:1" fill="#f3bfb2" d="M 134.5,257.5 C 137.152,264.732 139.819,272.065 142.5,279.5C 143.039,285.242 145.206,290.242 149,294.5C 150.36,299.437 148.86,303.103 144.5,305.5C 143.571,306.689 143.238,308.022 143.5,309.5C 142.167,309.5 140.833,309.5 139.5,309.5C 138.452,314.08 136.785,318.413 134.5,322.5C 135,323.5 135.5,324.5 136,325.5C 136.423,324.044 137.256,323.544 138.5,324C 139.451,324.718 139.617,325.551 139,326.5C 137.488,327.257 136.154,328.257 135,329.5C 133.488,326.143 130.988,324.143 127.5,323.5C 118.446,312.73 111.446,300.73 106.5,287.5C 107.496,287.414 108.329,287.748 109,288.5C 110.037,291.405 111.204,294.239 112.5,297C 114.935,297.853 117.269,298.853 119.5,300C 119.943,301.518 119.276,302.685 117.5,303.5C 118.242,304.287 119.075,304.953 120,305.5C 122.723,301.371 124.223,296.704 124.5,291.5C 126.791,289.877 128.791,288.043 130.5,286C 129.258,281.836 129.258,277.669 130.5,273.5C 131.167,273.167 131.833,272.833 132.5,272.5C 132.51,276.699 134.343,279.699 138,281.5C 135.231,273.873 134.065,265.873 134.5,257.5 Z"/></g>
<g><path style="opacity:1" fill="#d6bfd1" d="M 303.5,241.5 C 300.099,246.082 296.433,250.582 292.5,255C 290.22,255.233 288.22,256.066 286.5,257.5C 283.884,261.784 280.551,265.451 276.5,268.5C 275.266,270.398 275.599,272.065 277.5,273.5C 274.634,274.208 271.8,274.875 269,275.5C 268.383,276.449 268.549,277.282 269.5,278C 272.595,278.714 275.595,279.714 278.5,281C 279.252,281.671 279.586,282.504 279.5,283.5C 274.897,281.575 270.23,279.742 265.5,278C 264.289,276.887 264.289,275.72 265.5,274.5C 277.91,263.082 290.577,252.082 303.5,241.5 Z"/></g>
<g><path style="opacity:1" fill="#e9bbbf" d="M 200.5,253.5 C 200.5,255.833 200.5,258.167 200.5,260.5C 200.645,273.063 201.645,285.563 203.5,298C 203.4,300.302 202.733,302.302 201.5,304C 202.603,305.68 202.27,307.18 200.5,308.5C 198.833,307.167 197.167,307.167 195.5,308.5C 192.754,306.527 189.754,305.027 186.5,304C 185.619,303.292 184.953,302.458 184.5,301.5C 183.793,299.866 182.627,298.532 181,297.5C 180.517,296.552 180.351,295.552 180.5,294.5C 182.226,294.815 183.893,294.981 185.5,295C 184.643,294.311 183.977,293.478 183.5,292.5C 185.057,288.257 186.724,283.923 188.5,279.5C 190.556,277.981 192.89,277.147 195.5,277C 193.981,274.379 194.481,272.212 197,270.5C 198.085,265.563 198.752,260.563 199,255.5C 199.278,254.584 199.778,253.918 200.5,253.5 Z"/></g>
<g><path style="opacity:1" fill="#dbbad1" d="M 243.5,284.5 C 247.642,286.622 252.142,287.955 257,288.5C 258.364,289.371 259.53,290.371 260.5,291.5C 260.062,291.435 259.728,291.601 259.5,292C 260.833,292.667 262.167,293.333 263.5,294C 260.956,295.563 260.956,297.063 263.5,298.5C 261.138,299.271 258.804,300.105 256.5,301C 256.394,305.837 254.06,309.004 249.5,310.5C 247.097,312.305 245.43,314.638 244.5,317.5C 240.851,319.158 237.185,319.992 233.5,320C 238.391,321.114 243.391,321.614 248.5,321.5C 257.347,321.728 266.014,320.728 274.5,318.5C 267.621,321.679 260.288,323.345 252.5,323.5C 243.482,323.552 234.482,323.218 225.5,322.5C 223.801,322.66 222.134,322.494 220.5,322C 219.748,321.329 219.414,320.496 219.5,319.5C 219.104,316.956 219.771,314.789 221.5,313C 220.167,311.16 220.334,310.66 222,311.5C 222.807,307.551 223.307,307.551 223.5,311.5C 225.492,311.672 227.158,311.005 228.5,309.5C 229.192,306.064 230.192,302.73 231.5,299.5C 230.98,297.528 229.813,297.528 228,299.5C 229.733,294.7 232.066,290.034 235,285.5C 236.067,287.283 237.567,287.783 239.5,287C 239.043,286.586 238.709,286.086 238.5,285.5C 240.045,284.548 241.712,284.215 243.5,284.5 Z"/></g>
<g><path style="opacity:0.998" fill="#d0c0d8" d="M 352.5,199.5 C 352.335,203.182 352.501,206.848 353,210.5C 355.708,215.622 356.208,220.955 354.5,226.5C 354.05,232.334 354.717,238.001 356.5,243.5C 353.033,250.052 351.7,257.052 352.5,264.5C 351.5,264.5 350.5,264.5 349.5,264.5C 349.054,268.698 348.054,272.698 346.5,276.5C 343.224,282.068 340.724,288.068 339,294.5C 334.735,297.753 331.069,301.42 328,305.5C 327.43,310.61 327.93,315.61 329.5,320.5C 325.913,315.85 324.746,310.516 326,304.5C 344.039,283.389 353.206,258.889 353.5,231C 352.872,220.706 351.539,210.539 349.5,200.5C 350.391,199.89 351.391,199.557 352.5,199.5 Z"/></g>
<g><path style="opacity:1" fill="#e0bbcb" d="M 239.5,280.5 C 239.5,281.5 239.5,282.5 239.5,283.5C 241.099,283.232 242.432,283.566 243.5,284.5C 241.712,284.215 240.045,284.548 238.5,285.5C 238.709,286.086 239.043,286.586 239.5,287C 237.567,287.783 236.067,287.283 235,285.5C 232.066,290.034 229.733,294.7 228,299.5C 229.813,297.528 230.98,297.528 231.5,299.5C 230.192,302.73 229.192,306.064 228.5,309.5C 227.158,311.005 225.492,311.672 223.5,311.5C 223.307,307.551 222.807,307.551 222,311.5C 220.334,310.66 220.167,311.16 221.5,313C 219.771,314.789 219.104,316.956 219.5,319.5C 216.828,304.297 214.662,288.963 213,273.5C 213.561,272.978 214.228,272.645 215,272.5C 223.042,275.607 231.209,278.274 239.5,280.5 Z"/></g>
<g><path style="opacity:1" fill="#d2bfd7" d="M 318.5,283.5 C 316.887,286.286 315.054,288.953 313,291.5C 311.883,293.124 310.383,294.124 308.5,294.5C 298.915,291.199 289.581,287.533 280.5,283.5C 283.579,283.26 286.579,283.593 289.5,284.5C 289.833,283.833 290.167,283.167 290.5,282.5C 291.5,283.167 292.5,283.833 293.5,284.5C 295.214,283.391 295.881,284.058 295.5,286.5C 297.199,286.34 298.866,286.506 300.5,287C 303.437,290.214 307.104,291.214 311.5,290C 313.103,287.461 314.436,284.794 315.5,282C 316.788,281.761 317.788,282.261 318.5,283.5 Z"/></g>
<g><path style="opacity:1" fill="#d5bad8" d="M 260.5,291.5 C 271.919,294.193 283.252,297.526 294.5,301.5C 295.614,302.723 295.781,304.056 295,305.5C 292.585,306.411 291.085,308.078 290.5,310.5C 285.931,314.481 280.597,317.148 274.5,318.5C 266.014,320.728 257.347,321.728 248.5,321.5C 243.391,321.614 238.391,321.114 233.5,320C 237.185,319.992 240.851,319.158 244.5,317.5C 245.43,314.638 247.097,312.305 249.5,310.5C 254.06,309.004 256.394,305.837 256.5,301C 258.804,300.105 261.138,299.271 263.5,298.5C 260.956,297.063 260.956,295.563 263.5,294C 262.167,293.333 260.833,292.667 259.5,292C 259.728,291.601 260.062,291.435 260.5,291.5 Z"/></g>
<g><path style="opacity:1" fill="#d5bfd2" d="M 239.5,280.5 C 259.399,286.896 279.066,294.063 298.5,302C 299.451,302.718 299.617,303.551 299,304.5C 296.546,307.134 293.713,309.134 290.5,310.5C 291.085,308.078 292.585,306.411 295,305.5C 295.781,304.056 295.614,302.723 294.5,301.5C 283.252,297.526 271.919,294.193 260.5,291.5C 259.53,290.371 258.364,289.371 257,288.5C 252.142,287.955 247.642,286.622 243.5,284.5C 242.432,283.566 241.099,283.232 239.5,283.5C 239.5,282.5 239.5,281.5 239.5,280.5 Z"/></g>
<g><path style="opacity:1" fill="#edbdb9" d="M 142.5,279.5 C 147.819,289.455 154.152,298.788 161.5,307.5C 162.455,309.746 163.122,312.079 163.5,314.5C 164.278,315.156 164.944,315.989 165.5,317C 165.167,317.5 164.833,318 164.5,318.5C 163.167,317.5 161.833,316.5 160.5,315.5C 155.268,321.959 152.268,329.292 151.5,337.5C 146.959,337.815 145.959,339.649 148.5,343C 149.833,343.333 151.167,343.667 152.5,344C 151.829,344.986 151.829,346.153 152.5,347.5C 142.874,340.874 134.54,332.874 127.5,323.5C 130.988,324.143 133.488,326.143 135,329.5C 136.154,328.257 137.488,327.257 139,326.5C 139.617,325.551 139.451,324.718 138.5,324C 137.256,323.544 136.423,324.044 136,325.5C 135.5,324.5 135,323.5 134.5,322.5C 136.785,318.413 138.452,314.08 139.5,309.5C 140.833,309.5 142.167,309.5 143.5,309.5C 143.238,308.022 143.571,306.689 144.5,305.5C 148.86,303.103 150.36,299.437 149,294.5C 145.206,290.242 143.039,285.242 142.5,279.5 Z"/></g>
<g><path style="opacity:1" fill="#e2c0c7" d="M 200.5,260.5 C 203.28,278.64 205.613,296.973 207.5,315.5C 205.473,315.662 203.473,315.495 201.5,315C 196.167,311.667 190.833,308.333 185.5,305C 184.29,303.961 183.29,302.794 182.5,301.5C 183.167,301.5 183.833,301.5 184.5,301.5C 184.953,302.458 185.619,303.292 186.5,304C 189.754,305.027 192.754,306.527 195.5,308.5C 197.167,307.167 198.833,307.167 200.5,308.5C 202.27,307.18 202.603,305.68 201.5,304C 202.733,302.302 203.4,300.302 203.5,298C 201.645,285.563 200.645,273.063 200.5,260.5 Z"/></g>
<g><path style="opacity:1" fill="#eabbbe" d="M 163.5,314.5 C 171.105,315.561 173.105,319.061 169.5,325C 169.057,326.518 169.724,327.685 171.5,328.5C 168.55,334.731 165.884,341.064 163.5,347.5C 159.833,347.5 156.167,347.5 152.5,347.5C 151.829,346.153 151.829,344.986 152.5,344C 151.167,343.667 149.833,343.333 148.5,343C 145.959,339.649 146.959,337.815 151.5,337.5C 152.268,329.292 155.268,321.959 160.5,315.5C 161.833,316.5 163.167,317.5 164.5,318.5C 164.833,318 165.167,317.5 165.5,317C 164.944,315.989 164.278,315.156 163.5,314.5 Z"/></g>
<g><path style="opacity:0.188" fill="#f0e2ea" d="M 225.5,322.5 C 234.482,323.218 243.482,323.552 252.5,323.5C 249.351,324.165 246.018,324.498 242.5,324.5C 236.599,324.598 230.933,323.931 225.5,322.5 Z"/></g>
<g><path style="opacity:1" fill="#e0bccb" d="M 192.5,330.5 C 207.714,337.969 223.714,342.302 240.5,343.5C 236.481,343.646 232.481,343.979 228.5,344.5C 222.195,342.636 215.695,341.302 209,340.5C 207.736,342.607 205.903,343.607 203.5,343.5C 202.438,351.235 199.772,358.402 195.5,365C 195.645,365.772 195.978,366.439 196.5,367C 201.08,369.232 205.414,371.732 209.5,374.5C 191.084,370.955 174.418,363.622 159.5,352.5C 160.496,352.414 161.329,352.748 162,353.5C 164.552,350.806 165.719,351.473 165.5,355.5C 167.722,356.386 169.888,356.386 172,355.5C 172.5,355.833 173,356.167 173.5,356.5C 172.41,357.609 172.41,358.609 173.5,359.5C 175.642,360.601 177.808,361.601 180,362.5C 180.5,362 181,361.5 181.5,361C 178.725,360.994 176.725,359.827 175.5,357.5C 175.919,356.328 176.585,355.328 177.5,354.5C 179.5,353.833 181.5,353.167 183.5,352.5C 182.585,351.672 181.919,350.672 181.5,349.5C 184.473,342.56 188.14,336.227 192.5,330.5 Z"/></g>
<g><path style="opacity:1" fill="#d1bbdd" d="M 303.5,333.5 C 305.954,336.072 308.621,338.405 311.5,340.5C 309.375,342.824 306.875,343.491 304,342.5C 302.409,345.595 300.243,348.262 297.5,350.5C 299.167,351.167 300.833,351.833 302.5,352.5C 300.257,353.474 297.924,353.808 295.5,353.5C 295.263,356.212 295.263,358.712 295.5,361C 293.965,360.339 292.298,360.006 290.5,360C 291.21,362.544 292.876,363.711 295.5,363.5C 298.009,362.157 300.676,361.657 303.5,362C 303.034,363.299 303.034,364.799 303.5,366.5C 305.924,366.192 308.257,366.526 310.5,367.5C 311.127,368.417 311.461,369.417 311.5,370.5C 308.076,369.041 304.576,367.708 301,366.5C 298.105,367.409 295.272,368.409 292.5,369.5C 286.05,369.695 279.717,370.695 273.5,372.5C 270.012,371.313 266.512,370.313 263,369.5C 261.984,370.634 261.317,370.301 261,368.5C 259.506,369.747 258.006,369.747 256.5,368.5C 265.884,366.095 265.551,365.095 255.5,365.5C 255.5,361.167 255.5,356.833 255.5,352.5C 258.4,352.72 261.067,352.054 263.5,350.5C 261.539,347.593 259.039,346.927 256,348.5C 254.188,348.507 252.688,347.84 251.5,346.5C 255.881,344.568 260.048,344.235 264,345.5C 267.283,344.014 270.617,342.681 274,341.5C 275.711,341.439 277.044,342.106 278,343.5C 280.268,341.354 282.768,341.02 285.5,342.5C 286.167,342.167 286.833,341.833 287.5,341.5C 286.738,341.089 285.738,340.923 284.5,341C 284.833,340.667 285.167,340.333 285.5,340C 284.572,339.612 283.905,338.945 283.5,338C 285.871,336.156 288.205,334.323 290.5,332.5C 295.008,329.796 299.342,330.129 303.5,333.5 Z"/></g>
<g><path style="opacity:1" fill="#ddbad1" d="M 228.5,344.5 C 227.602,345.158 226.602,345.824 225.5,346.5C 229.641,349.099 229.474,349.765 225,348.5C 223.491,349.09 221.991,349.756 220.5,350.5C 223.133,351.54 225.466,352.373 227.5,353C 226.692,354.706 225.359,355.539 223.5,355.5C 223.5,358.167 223.5,360.833 223.5,363.5C 222.167,363.5 220.833,363.5 219.5,363.5C 219.5,364.833 219.5,366.167 219.5,367.5C 215.61,368.024 211.944,369.191 208.5,371C 210.895,371.681 213.228,372.515 215.5,373.5C 213.604,374.466 211.604,374.799 209.5,374.5C 205.414,371.732 201.08,369.232 196.5,367C 195.978,366.439 195.645,365.772 195.5,365C 199.772,358.402 202.438,351.235 203.5,343.5C 205.903,343.607 207.736,342.607 209,340.5C 215.695,341.302 222.195,342.636 228.5,344.5 Z"/></g>
<g><path style="opacity:0.998" fill="#ccbfda" d="M 303.5,333.5 C 314.359,336.927 325.026,340.927 335.5,345.5C 336.167,345.333 336.833,345.167 337.5,345C 335.998,341.995 334.998,338.829 334.5,335.5C 337.587,337.081 339.253,339.581 339.5,343C 339.934,345.892 338.768,347.725 336,348.5C 327.746,345.948 319.579,343.282 311.5,340.5C 308.621,338.405 305.954,336.072 303.5,333.5 Z"/></g>
<g><path style="opacity:1" fill="#e6bcc4" d="M 161.5,307.5 C 171.039,316.392 181.373,324.058 192.5,330.5C 188.14,336.227 184.473,342.56 181.5,349.5C 181.919,350.672 182.585,351.672 183.5,352.5C 181.5,353.167 179.5,353.833 177.5,354.5C 176.585,355.328 175.919,356.328 175.5,357.5C 176.725,359.827 178.725,360.994 181.5,361C 181,361.5 180.5,362 180,362.5C 177.808,361.601 175.642,360.601 173.5,359.5C 172.41,358.609 172.41,357.609 173.5,356.5C 173,356.167 172.5,355.833 172,355.5C 169.888,356.386 167.722,356.386 165.5,355.5C 165.719,351.473 164.552,350.806 162,353.5C 161.329,352.748 160.496,352.414 159.5,352.5C 156.63,351.567 154.296,349.9 152.5,347.5C 156.167,347.5 159.833,347.5 163.5,347.5C 165.884,341.064 168.55,334.731 171.5,328.5C 169.724,327.685 169.057,326.518 169.5,325C 173.105,319.061 171.105,315.561 163.5,314.5C 163.122,312.079 162.455,309.746 161.5,307.5 Z"/></g>
<g><path style="opacity:1" fill="#d5bbd7" d="M 290.5,332.5 C 288.205,334.323 285.871,336.156 283.5,338C 283.905,338.945 284.572,339.612 285.5,340C 285.167,340.333 284.833,340.667 284.5,341C 285.738,340.923 286.738,341.089 287.5,341.5C 286.833,341.833 286.167,342.167 285.5,342.5C 282.768,341.02 280.268,341.354 278,343.5C 277.044,342.106 275.711,341.439 274,341.5C 270.617,342.681 267.283,344.014 264,345.5C 260.048,344.235 255.881,344.568 251.5,346.5C 252.688,347.84 254.188,348.507 256,348.5C 259.039,346.927 261.539,347.593 263.5,350.5C 261.067,352.054 258.4,352.72 255.5,352.5C 255.5,356.833 255.5,361.167 255.5,365.5C 265.551,365.095 265.884,366.095 256.5,368.5C 258.006,369.747 259.506,369.747 261,368.5C 261.317,370.301 261.984,370.634 263,369.5C 266.512,370.313 270.012,371.313 273.5,372.5C 279.717,370.695 286.05,369.695 292.5,369.5C 270.421,378.118 247.421,380.951 223.5,378C 218.597,377.242 213.93,376.075 209.5,374.5C 211.604,374.799 213.604,374.466 215.5,373.5C 213.228,372.515 210.895,371.681 208.5,371C 211.944,369.191 215.61,368.024 219.5,367.5C 219.5,366.167 219.5,364.833 219.5,363.5C 220.833,363.5 222.167,363.5 223.5,363.5C 223.5,360.833 223.5,358.167 223.5,355.5C 225.359,355.539 226.692,354.706 227.5,353C 225.466,352.373 223.133,351.54 220.5,350.5C 221.991,349.756 223.491,349.09 225,348.5C 229.474,349.765 229.641,349.099 225.5,346.5C 226.602,345.824 227.602,345.158 228.5,344.5C 232.481,343.979 236.481,343.646 240.5,343.5C 257.868,342.894 274.535,339.227 290.5,332.5 Z"/></g>
</svg>
